REM DIRINDEX 1\2\3,1\2\4,1\2\5,1\2\6
REM DIRNAME folder01,folder02,folder03,folder04,folder05,folder06
TITLE ""
FILE "159 159.mp3" MP3
  TRACK 01 AUDIO
    TITLE "0:"
    INDEX 01 00:00:00
  TRACK 02 AUDIO
    TITLE "3:cjc157_5828"
    INDEX 01 00:00:11
  TRACK 03 AUDIO
    TITLE "0:"
    INDEX 01 00:01:42
  TRACK 04 AUDIO
    TITLE "4:cjc157_5829"
    INDEX 01 00:02:14
  TRACK 05 AUDIO
    TITLE "0:"
    INDEX 01 00:03:17
  TRACK 06 AUDIO
    TITLE "5:cjc157_5830"
    INDEX 01 00:03:74
  TRACK 07 AUDIO
    TITLE "0:"
    INDEX 01 00:07:13
  TRACK 08 AUDIO
    TITLE "5:cjc157_5831"
    INDEX 01 00:07:56
  TRACK 09 AUDIO
    TITLE "0:"
    INDEX 01 00:11:05
  TRACK 10 AUDIO
    TITLE "5:cjc157_5832"
    INDEX 01 00:11:52
  TRACK 11 AUDIO
    TITLE "0:"
    INDEX 01 00:15:09
  TRACK 12 AUDIO
    TITLE "3:cjc157_5833"
    INDEX 01 00:15:52
  TRACK 13 AUDIO
    TITLE "0:"
    INDEX 01 00:16:49
  TRACK 14 AUDIO
    TITLE "4:cjc157_5834"
    INDEX 01 00:17:23
  TRACK 15 AUDIO
    TITLE "0:"
    INDEX 01 00:18:42
  TRACK 16 AUDIO
    TITLE "5:cjc157_5835"
    INDEX 01 00:19:15
  TRACK 17 AUDIO
    TITLE "0:"
    INDEX 01 00:23:18
  TRACK 18 AUDIO
    TITLE "5:cjc157_5836"
    INDEX 01 00:23:71
  TRACK 19 AUDIO
    TITLE "0:"
    INDEX 01 00:28:53
  TRACK 20 AUDIO
    TITLE "3:cjc157_5837"
    INDEX 01 00:29:25
  TRACK 21 AUDIO
    TITLE "0:"
    INDEX 01 00:30:40
  TRACK 22 AUDIO
    TITLE "4:cjc157_5838"
    INDEX 01 00:31:14
  TRACK 23 AUDIO
    TITLE "0:"
    INDEX 01 00:32:47
  TRACK 24 AUDIO
    TITLE "5:cjc157_5839"
    INDEX 01 00:33:15
  TRACK 25 AUDIO
    TITLE "0:"
    INDEX 01 00:36:15
  TRACK 26 AUDIO
    TITLE "5:cjc157_5840"
    INDEX 01 00:36:60
  TRACK 27 AUDIO
    TITLE "0:"
    INDEX 01 00:40:30
  TRACK 28 AUDIO
    TITLE "3:cjc157_5841"
    INDEX 01 00:40:72
  TRACK 29 AUDIO
    TITLE "0:"
    INDEX 01 00:42:66
  TRACK 30 AUDIO
    TITLE "4:cjc157_5842"
    INDEX 01 00:43:39
  TRACK 31 AUDIO
    TITLE "0:"
    INDEX 01 00:44:65
  TRACK 32 AUDIO
    TITLE "5:cjc157_5843"
    INDEX 01 00:45:35
  TRACK 33 AUDIO
    TITLE "0:"
    INDEX 01 00:48:26
  TRACK 34 AUDIO
    TITLE "3:cjc157_5844"
    INDEX 01 00:48:73
  TRACK 35 AUDIO
    TITLE "0:"
    INDEX 01 00:50:25
  TRACK 36 AUDIO
    TITLE "4:cjc157_5845"
    INDEX 01 00:50:70
  TRACK 37 AUDIO
    TITLE "0:"
    INDEX 01 00:52:63
  TRACK 38 AUDIO
    TITLE "5:cjc157_5846"
    INDEX 01 00:53:35
  TRACK 39 AUDIO
    TITLE "0:"
    INDEX 01 00:57:13
  TRACK 40 AUDIO
    TITLE "3:cjc157_5847"
    INDEX 01 00:57:60
  TRACK 41 AUDIO
    TITLE "0:"
    INDEX 01 00:59:55
  TRACK 42 AUDIO
    TITLE "4:cjc157_5848"
    INDEX 01 01:00:31
  TRACK 43 AUDIO
    TITLE "0:"
    INDEX 01 01:01:54
  TRACK 44 AUDIO
    TITLE "5:cjc157_5849"
    INDEX 01 01:02:28
  TRACK 45 AUDIO
    TITLE "0:"
    INDEX 01 01:04:35
  TRACK 46 AUDIO
    TITLE "5:cjc157_5850"
    INDEX 01 01:05:09
  TRACK 47 AUDIO
    TITLE "0:"
    INDEX 01 01:07:29
  TRACK 48 AUDIO
    TITLE "3:cjc157_5851"
    INDEX 01 01:08:01
  TRACK 49 AUDIO
    TITLE "0:"
    INDEX 01 01:09:57
  TRACK 50 AUDIO
    TITLE "4:cjc157_5852"
    INDEX 01 01:10:30
  TRACK 51 AUDIO
    TITLE "0:"
    INDEX 01 01:12:13
  TRACK 52 AUDIO
    TITLE "5:cjc157_5853"
    INDEX 01 01:12:58
  TRACK 53 AUDIO
    TITLE "0:"
    INDEX 01 01:16:01
  TRACK 54 AUDIO
    TITLE "3:cjc157_5854"
    INDEX 01 01:16:46
  TRACK 55 AUDIO
    TITLE "0:"
    INDEX 01 01:18:09
  TRACK 56 AUDIO
    TITLE "4:cjc157_5855"
    INDEX 01 01:18:54
  TRACK 57 AUDIO
    TITLE "0:"
    INDEX 01 01:20:06
  TRACK 58 AUDIO
    TITLE "5:cjc157_5856"
    INDEX 01 01:20:49
  TRACK 59 AUDIO
    TITLE "0:"
    INDEX 01 01:23:46
  TRACK 60 AUDIO
    TITLE "5:cjc157_5857"
    INDEX 01 01:24:12
  TRACK 61 AUDIO
    TITLE "0:"
    INDEX 01 01:26:74
  TRACK 62 AUDIO
    TITLE "3:cjc157_5858"
    INDEX 01 01:27:46
  TRACK 63 AUDIO
    TITLE "0:"
    INDEX 01 01:29:07
  TRACK 64 AUDIO
    TITLE "4:cjc157_5859"
    INDEX 01 01:29:54
  TRACK 65 AUDIO
    TITLE "0:"
    INDEX 01 01:31:26
  TRACK 66 AUDIO
    TITLE "5:cjc157_5860"
    INDEX 01 01:32:00
  TRACK 67 AUDIO
    TITLE "0:"
    INDEX 01 01:34:54
  TRACK 68 AUDIO
    TITLE "5:cjc157_5861"
    INDEX 01 01:35:24
  TRACK 69 AUDIO
    TITLE "0:"
    INDEX 01 01:38:30
  TRACK 70 AUDIO
    TITLE "3:cjc157_5862"
    INDEX 01 01:39:00
  TRACK 71 AUDIO
    TITLE "0:"
    INDEX 01 01:40:23
  TRACK 72 AUDIO
    TITLE "4:cjc157_5863"
    INDEX 01 01:40:70
  TRACK 73 AUDIO
    TITLE "0:"
    INDEX 01 01:42:37
  TRACK 74 AUDIO
    TITLE "5:cjc157_5864"
    INDEX 01 01:43:23
  TRACK 75 AUDIO
    TITLE "0:"
    INDEX 01 01:48:40
